<svg width="40" height="40" viewBox="0 0 40 40" fill="none" xmlns="http://www.w3.org/2000/svg">
<path d="M40 20C40 8.9543 31.0457 0 20 0C8.9543 0 0 8.9543 0 20C0 31.0457 8.9543 40 20 40C31.0457 40 40 31.0457 40 20Z" fill="#E0736E"/>
<path d="M27.6558 23.3605C27.2031 24.657 26.3115 25.7546 25.1352 26.4632C23.8503 27.224 22.3837 27.6235 20.8904 27.6194C16.2757 27.6194 12.5727 23.9042 12.9042 19.4452C13.1892 15.6208 16.5021 12.5565 20.5286 12.3887C22.1155 12.3156 23.6899 12.7001 25.0645 13.4964C26.2735 14.2029 27.192 15.3163 27.6558 16.6376L27.6679 16.6739H33.2528C32.709 14.5407 31.6503 12.5734 30.1694 10.9445C28.6885 9.31556 26.8307 8.07473 24.7588 7.33075C22.6868 6.58677 20.464 6.36234 18.2852 6.67715C16.1064 6.99196 14.038 7.83639 12.2614 9.13642C14.978 8.0787 17.9924 8.07728 20.71 9.13245C23.4276 10.1876 25.6512 12.2228 26.9423 14.8366H26.9079C24.9836 11.5054 21.2603 9.24355 16.9913 9.24355C16.8518 9.24355 16.7144 9.24355 16.5749 9.24355C14.4409 9.31303 12.3842 10.0588 10.7017 11.3733C9.01917 12.6878 7.79789 14.5029 7.21414 16.5567C6.59154 18.8087 6.59154 21.1874 7.21414 23.4393C7.79805 25.4926 9.01949 27.3072 10.7021 28.621C12.3846 29.9348 14.4413 30.6798 16.5749 30.7484C16.7123 30.7484 16.8518 30.7484 16.9913 30.7484C21.2603 30.7484 24.9836 28.4866 26.9059 25.1574H26.9423C25.6518 27.7737 23.4265 29.8104 20.7066 30.8648C17.9866 31.9192 14.97 31.9144 12.2533 30.8515C14.0292 32.1534 16.0974 32.9997 18.2765 33.3162C20.4557 33.6328 22.6792 33.4098 24.7521 32.667C26.825 31.9241 28.684 30.6841 30.1661 29.0555C31.6481 27.427 32.7081 25.4597 33.2528 23.3261H27.6679L27.6558 23.3605Z" fill="white"/>
</svg>
